<svg preserveAspectRatio="none" overflow="visible" style="display: block;" width="16.9325" height="18.4023" viewBox="0 0 16.9325 18.4023" fill="none" xmlns="http://www.w3.org/2000/svg">
<path id="Icon" d="M7.33091 0.910156C9.3231 0.910156 10.7033 1.4375 11.4715 2.49219L11.784 3.03906L11.9793 3.68359C12.0314 3.93099 12.0575 4.19141 12.0575 4.46484C12.0575 5.80599 11.2632 6.73047 9.67466 7.23828C8.99758 7.44661 8.2619 7.55078 7.46763 7.55078C4.94159 7.55078 3.26841 7.08203 2.4481 6.14453C2.03143 5.6237 1.8231 4.96615 1.8231 4.17188C1.8231 2.60938 2.8843 1.60026 5.00669 1.14453C5.72284 0.988281 6.49758 0.910156 7.33091 0.910156ZM6.39341 2.21875C5.23456 2.21875 4.36867 2.4987 3.79576 3.05859L3.50279 3.41016L3.30747 3.83984C3.28143 3.97005 3.26841 4.11328 3.26841 4.26953C3.26841 5.59766 4.49237 6.26172 6.94029 6.26172C8.633 6.26172 9.72675 5.94922 10.2215 5.32422C10.4689 4.9987 10.5926 4.58854 10.5926 4.09375C10.5926 3.14323 9.8244 2.54427 8.28794 2.29688C7.93638 2.24479 7.5718 2.21875 7.19419 2.21875H6.39341ZM2.99497 12.8242H4.30357C4.45982 12.8242 4.53794 12.8893 4.53794 13.0195L4.38169 13.625V13.6445V16.5938H16.4325V17.9023H2.99497V12.8242ZM14.245 0.5H15.5731C15.7293 0.5 15.8075 0.558594 15.8075 0.675781L15.6512 1.32031V1.33984V15.0508H14.245V12.668H10.4559V11.3398H14.245V0.5ZM0.494975 9.15234L13.0536 8.64453V9.89453L7.79966 10.168C7.74758 10.168 7.70201 10.168 7.66294 10.168V14.2695H6.23716V10.207L2.25279 10.5C2.18768 10.5 1.97284 10.5716 1.60826 10.7148L1.27622 10.793C0.911641 10.793 0.651225 10.2461 0.494975 9.15234Z" fill="#311908" stroke="#311908" stroke-linejoin="bevel"/>
</svg>
